<svg width="200" height="200" viewBox="0 0 200 200" fill="none" xmlns="http://www.w3.org/2000/svg">
<g clip-path="url(#clip0_2035_2)">
<path d="M137.438 17.5547C142.263 17.5547 146.848 18.5971 150.981 20.4688C151.224 20.5787 151.465 20.692 151.705 20.8076C162.743 26.1338 170.376 37.4382 170.376 50.4922C170.376 61.2526 165.187 70.8232 157.183 76.8379C158.746 77.0486 160.285 77.338 161.797 77.6963C161.88 77.7158 161.964 77.7357 162.047 77.7559L162.823 77.9502C162.754 77.9322 162.684 77.9161 162.615 77.8984C162.721 77.9256 162.828 77.9519 162.934 77.9795C166.279 78.8598 169.483 80.092 172.501 81.6396C173.652 79.9525 175.056 78.4293 176.687 77.124C176.668 76.9341 176.653 76.743 176.644 76.5508C176.634 76.3587 176.629 76.1652 176.629 75.9707C176.629 69.5269 181.872 64.2852 188.315 64.2852C194.759 64.2853 200.001 69.5269 200.001 75.9707C200.001 82.4145 194.759 87.6571 188.315 87.6572C186.081 87.6572 183.991 87.0264 182.214 85.9336C182.129 85.8815 182.045 85.8285 181.962 85.7744C181.13 85.2333 180.371 84.589 179.703 83.8604C179.595 83.974 179.489 84.0892 179.385 84.2061C179.28 84.3231 179.178 84.4423 179.078 84.5625C178.878 84.8028 178.686 85.049 178.504 85.3018C190.63 93.9757 198.549 108.172 198.548 124.185C198.548 150.53 177.115 171.963 150.77 171.963H134.202V178.934C134.202 180.873 132.63 182.445 130.69 182.445C129.781 182.445 128.953 182.1 128.329 181.533C128.246 181.458 128.166 181.378 128.091 181.295C127.524 180.671 127.179 179.843 127.179 178.934V171.963H119.111V178.934C119.111 180.873 117.539 182.445 115.6 182.445C114.69 182.445 113.862 182.1 113.238 181.533C113.155 181.458 113.076 181.378 113 181.295C112.433 180.671 112.088 179.843 112.088 178.934V171.963H97.7324V178.934C97.7324 179.176 97.708 179.413 97.6611 179.642C97.6494 179.699 97.6365 179.755 97.6221 179.812C97.4777 180.372 97.1981 180.879 96.8203 181.295C96.7447 181.378 96.6652 181.458 96.582 181.533C95.9584 182.1 95.1297 182.445 94.2207 182.445C92.5848 182.445 91.21 181.326 90.8203 179.812C90.8059 179.755 90.7929 179.699 90.7812 179.642C90.7344 179.413 90.71 179.176 90.71 178.934V171.963H82.6416V178.934C82.6416 179.843 82.2963 180.671 81.7295 181.295C81.6539 181.378 81.5743 181.458 81.4912 181.533C80.8675 182.1 80.0389 182.445 79.1299 182.445C77.1907 182.445 75.6182 180.873 75.6182 178.934V171.963H68.2734C65.901 171.963 63.5687 171.788 61.2881 171.452C61.2744 171.45 61.2607 171.448 61.2471 171.446C60.2903 171.305 59.3428 171.134 58.4053 170.937C58.3394 170.923 58.2738 170.908 58.208 170.894C57.9648 170.841 57.7223 170.787 57.4805 170.731C57.3934 170.711 57.3066 170.69 57.2197 170.669C56.9773 170.611 56.7352 170.554 56.4941 170.492C56.4667 170.485 56.4395 170.478 56.4121 170.471C56.1252 170.397 55.8395 170.321 55.5547 170.242C55.525 170.234 55.4955 170.225 55.4658 170.217C55.1869 170.139 54.9087 170.06 54.6318 169.978C54.5867 169.964 54.5421 169.949 54.4971 169.936C54.2489 169.861 54.0013 169.785 53.7549 169.706C53.6557 169.674 53.5569 169.642 53.458 169.609C53.2429 169.539 53.0282 169.468 52.8145 169.395C52.7456 169.371 52.6771 169.346 52.6084 169.322C52.3851 169.245 52.1623 169.166 51.9404 169.085C51.8445 169.05 51.7489 169.014 51.6533 168.979C51.4412 168.9 51.2293 168.82 51.0186 168.738C50.9477 168.711 50.8773 168.682 50.8066 168.654C50.5776 168.564 50.3493 168.473 50.1221 168.379C50.0616 168.354 50.0017 168.328 49.9414 168.303C49.7101 168.206 49.4794 168.109 49.25 168.009C49.1825 167.979 49.1152 167.95 49.0479 167.92C48.8236 167.821 48.6003 167.72 48.3779 167.618C48.3081 167.586 48.2386 167.553 48.1689 167.521C47.9559 167.421 47.7435 167.321 47.5322 167.219C47.4569 167.182 47.3818 167.145 47.3066 167.108C47.0907 167.002 46.8752 166.896 46.6611 166.787C46.6 166.756 46.5395 166.724 46.4785 166.692C46.2612 166.58 46.0445 166.468 45.8291 166.353C45.7628 166.317 45.697 166.281 45.6309 166.245C45.4131 166.127 45.1962 166.009 44.9805 165.888C44.9217 165.855 44.8633 165.821 44.8047 165.788C44.599 165.672 44.3942 165.554 44.1904 165.435C44.1141 165.39 44.0379 165.345 43.9619 165.3C43.7667 165.184 43.5723 165.067 43.3789 164.948C43.2862 164.891 43.1939 164.834 43.1016 164.776C42.9366 164.674 42.772 164.57 42.6084 164.466C42.5068 164.401 42.4057 164.335 42.3047 164.27C42.1456 164.166 41.9869 164.062 41.8291 163.957C41.7278 163.889 41.6271 163.821 41.5264 163.753C41.352 163.635 41.1786 163.515 41.0059 163.395C40.9367 163.346 40.8677 163.298 40.7988 163.249C40.6035 163.111 40.4089 162.973 40.2158 162.832C40.1563 162.789 40.0974 162.745 40.0381 162.701C39.8521 162.564 39.6673 162.426 39.4834 162.287C39.4121 162.233 39.3405 162.179 39.2695 162.125C39.0939 161.99 38.9198 161.854 38.7461 161.717C38.6655 161.653 38.5851 161.589 38.5049 161.525C38.3403 161.394 38.1765 161.262 38.0137 161.128C37.9432 161.07 37.8728 161.012 37.8027 160.954C37.6315 160.812 37.4612 160.669 37.292 160.524C37.2035 160.449 37.1153 160.373 37.0273 160.297C36.8961 160.183 36.7658 160.068 36.6357 159.953C36.5332 159.862 36.4308 159.771 36.3291 159.68C36.1839 159.549 36.04 159.417 35.8965 159.284C35.8213 159.215 35.7456 159.146 35.6709 159.076C35.5197 158.935 35.3701 158.792 35.2207 158.648C35.1347 158.566 35.0483 158.484 34.9629 158.4C34.8331 158.274 34.7045 158.146 34.5762 158.019C34.4814 157.924 34.3869 157.83 34.293 157.734C34.1747 157.615 34.0574 157.494 33.9404 157.373C33.8369 157.266 33.7334 157.159 33.6309 157.051C33.4928 156.905 33.356 156.759 33.2197 156.611C33.1598 156.547 33.0996 156.482 33.04 156.417C32.8844 156.247 32.7303 156.076 32.5771 155.903C32.5192 155.838 32.4609 155.773 32.4033 155.708C32.2568 155.542 32.112 155.374 31.9678 155.205C31.9068 155.134 31.8457 155.063 31.7852 154.991C31.652 154.834 31.5208 154.675 31.3896 154.516C31.3147 154.425 31.2394 154.334 31.165 154.242C31.0374 154.085 30.9109 153.927 30.7852 153.768C30.7252 153.692 30.665 153.616 30.6055 153.54C30.4626 153.357 30.3219 153.172 30.1816 152.987C30.1291 152.918 30.0765 152.849 30.0244 152.779C29.8904 152.601 29.7575 152.421 29.626 152.24C29.5762 152.172 29.526 152.104 29.4766 152.035C29.3485 151.857 29.2224 151.678 29.0967 151.498C29.0357 151.411 28.9744 151.324 28.9141 151.236C28.7856 151.05 28.6591 150.862 28.5332 150.674C28.4919 150.612 28.4502 150.55 28.4092 150.488C28.2688 150.276 28.1302 150.063 27.9932 149.849C27.9597 149.796 27.9259 149.744 27.8926 149.691C27.7499 149.466 27.6097 149.239 27.4707 149.012C27.448 148.975 27.4249 148.938 27.4023 148.9C27.1042 148.409 26.8158 147.912 26.5352 147.409C26.5032 147.352 26.4702 147.296 26.4385 147.238C26.3389 147.058 26.2419 146.877 26.1445 146.695C26.0902 146.594 26.0341 146.493 25.9805 146.392C25.8808 146.202 25.7837 146.012 25.6865 145.821C25.6414 145.733 25.5954 145.645 25.5508 145.556C25.4383 145.332 25.3288 145.106 25.2197 144.88C25.1901 144.819 25.1592 144.758 25.1299 144.696C25.0377 144.503 24.948 144.309 24.8584 144.114C24.8144 144.019 24.769 143.924 24.7256 143.828C24.3977 143.104 24.0891 142.37 23.7969 141.627C23.6256 141.192 23.4595 140.754 23.3008 140.312C23.0834 139.708 22.877 139.099 22.6836 138.483L22.4023 137.557L1.94043 127.326C0.750697 126.731 -0.000901881 125.516 -0.000976562 124.186C-0.000976562 123.604 0.142898 123.044 0.404297 122.548C0.441702 122.477 0.48129 122.407 0.523438 122.339C0.860061 121.794 1.3456 121.342 1.94043 121.045L22.4023 110.813C27.7191 92.6035 43.6078 78.8603 62.9463 76.7051C55.0395 70.6829 49.9238 61.1752 49.9238 50.4922C49.9239 37.4383 57.5574 26.1338 68.5947 20.8076C68.8347 20.6918 69.0762 20.5788 69.3193 20.4688C73.4522 18.5972 78.0373 17.5547 82.8613 17.5547C94.1938 17.5548 104.207 23.309 110.136 32.0479C116.171 23.0753 126.29 17.5547 137.438 17.5547ZM71.7852 164.939H80.8584V117H87.8818V164.939H97.9619V117H104.985V164.939H114.059V117H121.082V164.939H131.163V117H138.186V164.939H147.259V83.4297H138.186V89H131.163V83.4297H121.082V89H114.059V83.4297H104.985V89H97.9619V83.4297H87.8818V89H80.8584V83.4297H71.7852V164.939ZM46.2129 89.9316C45.9404 90.1077 45.6704 90.2874 45.4023 90.4697C45.3574 90.5003 45.3124 90.5308 45.2676 90.5615C45.2895 90.5465 45.3121 90.5326 45.334 90.5176C45.3098 90.5341 45.2849 90.5498 45.2607 90.5664C34.5539 97.9171 27.5187 110.244 27.5186 124.185C27.5186 145.474 43.9276 163 64.7627 164.786V83.583C64.4636 83.6086 64.1654 83.6378 63.8682 83.6699C63.8903 83.6675 63.9124 83.6645 63.9346 83.6621L63.79 83.6768C63.7121 83.6853 63.6344 83.6951 63.5566 83.7041C63.6032 83.6987 63.6497 83.6937 63.6963 83.6885C63.0838 83.7572 62.4752 83.8389 61.8711 83.9346C61.9033 83.9295 61.9355 83.924 61.9678 83.9189C61.7684 83.95 61.5695 83.9826 61.3711 84.0166C61.528 83.9897 61.6853 83.9645 61.8428 83.9395C60.9074 84.0883 59.9825 84.2689 59.0693 84.4805C59.2638 84.4354 59.4588 84.3919 59.6543 84.3496C59.1409 84.4606 58.631 84.5808 58.125 84.7109C58.1129 84.714 58.1009 84.7176 58.0889 84.7207C57.6059 84.8454 57.1263 84.9783 56.6504 85.1201C56.8058 85.0738 56.962 85.0298 57.1182 84.9854C56.241 85.2353 55.3756 85.5131 54.5234 85.8193C54.5459 85.8113 54.5683 85.803 54.5908 85.7949C54.5589 85.8063 54.527 85.8176 54.4951 85.8291C54.4815 85.834 54.4678 85.8388 54.4541 85.8438C54.3181 85.8929 54.1823 85.9426 54.0469 85.9932C54.1594 85.9511 54.2728 85.9112 54.3857 85.8701C53.5424 86.1767 52.712 86.5104 51.8955 86.8701C51.9568 86.8431 52.0176 86.8148 52.0791 86.7881C51.9033 86.8645 51.7283 86.9427 51.5537 87.0215C51.6367 86.984 51.7204 86.9481 51.8037 86.9111C51.2593 87.1526 50.7201 87.4037 50.1885 87.668C50.0462 87.7387 49.905 87.8114 49.7637 87.8838C49.7367 87.8976 49.7095 87.9109 49.6826 87.9248C49.5486 87.9938 49.4144 88.0624 49.2812 88.1328C48.1852 88.7124 47.1192 89.3418 46.085 90.0156C46.1277 89.9878 46.17 89.9593 46.2129 89.9316ZM154.282 164.786C173.489 163.139 188.935 148.116 191.231 129.1C191.27 128.777 191.306 128.454 191.337 128.129C191.462 126.831 191.526 125.515 191.526 124.185C191.526 121.145 191.192 118.182 190.558 115.331C190.515 115.141 190.472 114.951 190.427 114.762C189.798 112.115 188.91 109.567 187.791 107.146C187.711 106.974 187.63 106.801 187.548 106.63C186.314 104.056 184.818 101.631 183.095 99.3896C182.98 99.2401 182.864 99.0912 182.747 98.9434C182.513 98.648 182.276 98.356 182.034 98.0674C181.913 97.9229 181.791 97.7795 181.668 97.6367C179.948 95.6384 178.039 93.8078 175.968 92.1738C175.935 92.5677 175.912 92.9632 175.912 93.3633C175.912 93.6058 175.888 93.8426 175.841 94.0713C175.829 94.1284 175.816 94.1851 175.802 94.2412C175.657 94.8021 175.378 95.3089 175 95.7246C174.887 95.8494 174.764 95.9658 174.634 96.0732C174.027 96.5741 173.249 96.875 172.4 96.875C170.764 96.8748 169.39 95.7556 169 94.2412C168.986 94.1851 168.973 94.1284 168.961 94.0713C168.914 93.8426 168.89 93.6058 168.89 93.3633C168.89 91.5386 169.128 89.7523 169.579 88.0381C164.931 85.6098 159.76 84.0526 154.282 83.583V164.786ZM11.3633 124.186L20.7236 128.865C20.573 127.325 20.4951 125.764 20.4951 124.186C20.4951 122.607 20.573 121.045 20.7236 119.505L11.3633 124.186ZM42.3643 92.749C41.4104 93.5364 40.4926 94.3659 39.6143 95.2354H39.6152C40.4936 94.3659 41.4114 93.5364 42.3652 92.749H42.3643ZM45.334 90.5176C45.3569 90.5019 45.3793 90.4854 45.4023 90.4697C45.4094 90.465 45.4168 90.4608 45.4238 90.4561C45.3938 90.4765 45.364 90.4971 45.334 90.5176ZM47.3125 89.2461C47.1919 89.3187 47.0719 89.392 46.9521 89.4658C47.0719 89.392 47.1919 89.3187 47.3125 89.2461ZM48.4619 88.5791C48.3398 88.6473 48.218 88.7158 48.0967 88.7852C48.218 88.7158 48.3398 88.6473 48.4619 88.5791ZM49.2266 88.1631C49.245 88.1533 49.2628 88.1426 49.2812 88.1328C49.283 88.1319 49.2853 88.1318 49.2871 88.1309C49.2669 88.1415 49.2468 88.1524 49.2266 88.1631ZM50.1846 87.6709C50.186 87.6702 50.187 87.6687 50.1885 87.668C50.2069 87.6588 50.2257 87.6507 50.2441 87.6416C50.2243 87.6514 50.2044 87.661 50.1846 87.6709ZM50.8047 87.3682C50.6761 87.4294 50.5478 87.4912 50.4199 87.5537C50.5478 87.4912 50.6761 87.4294 50.8047 87.3682ZM51.4961 87.0469C51.3379 87.1186 51.1805 87.1919 51.0234 87.2656C51.1805 87.1919 51.3379 87.1186 51.4961 87.0469ZM52.6943 86.5273C52.5288 86.5961 52.3637 86.6655 52.1992 86.7363C52.3637 86.6655 52.5288 86.5961 52.6943 86.5273ZM53.2559 86.2988C53.1099 86.3569 52.9645 86.4159 52.8193 86.4756C52.9645 86.4159 53.1099 86.3569 53.2559 86.2988ZM53.9844 86.0166C53.8087 86.0826 53.6335 86.1495 53.459 86.2178C53.6335 86.1495 53.8087 86.0826 53.9844 86.0166ZM55.249 85.5664C55.0646 85.6288 54.8805 85.6919 54.6973 85.7568C54.8805 85.6919 55.0646 85.6288 55.249 85.5664ZM59.0693 84.4805C59.0309 84.4894 58.9925 84.4988 58.9541 84.5078C58.9925 84.4988 59.0309 84.4894 59.0693 84.4805ZM61.2705 84.0332C61.0828 84.0658 60.8958 84.1005 60.709 84.1357C60.8958 84.1005 61.0828 84.0658 61.2705 84.0332ZM61.8711 83.9346C61.8616 83.9361 61.8522 83.9379 61.8428 83.9395C61.8522 83.9379 61.8616 83.9361 61.8711 83.9346ZM62.5869 83.8271C62.4019 83.8531 62.2174 83.8808 62.0332 83.9092C62.2174 83.8808 62.4019 83.8531 62.5869 83.8271ZM62.9365 83.7803C62.9352 83.7804 62.9339 83.7811 62.9326 83.7812C62.9339 83.7811 62.9352 83.7804 62.9365 83.7803ZM188.315 71.3086C185.744 71.3087 183.652 73.4004 183.652 75.9717C183.653 78.5428 185.744 80.6347 188.315 80.6348C190.886 80.6348 192.977 78.5428 192.978 75.9717C192.978 73.4004 190.886 71.3086 188.315 71.3086ZM137.439 24.5781C128.375 24.5781 120.176 29.2156 115.493 36.6963C115.411 36.8273 115.33 36.959 115.25 37.0918C114.77 37.8898 114.33 38.7189 113.932 39.5771L114.151 40.2207C114.572 41.4964 114.915 42.8063 115.179 44.1445C115.188 44.1923 115.197 44.2402 115.206 44.2881C115.239 44.4596 115.271 44.6313 115.302 44.8037C115.311 44.8557 115.319 44.9079 115.328 44.96C115.358 45.1337 115.387 45.3078 115.414 45.4824C115.421 45.5302 115.428 45.5781 115.436 45.626C115.498 46.0415 115.551 46.4595 115.598 46.8799C115.602 46.9216 115.608 46.9632 115.612 47.0049C115.632 47.187 115.649 47.3697 115.665 47.5527C115.669 47.5973 115.674 47.6419 115.678 47.6865C115.714 48.1104 115.742 48.5365 115.762 48.9648C115.764 49.0081 115.766 49.0514 115.768 49.0947C115.787 49.5585 115.799 50.0246 115.799 50.4932V76.4072H137.439C138.751 76.4072 140.041 76.3082 141.301 76.1191C141.358 76.1106 141.414 76.1017 141.471 76.0928C143.794 75.7282 146.017 75.0549 148.094 74.1143C148.285 74.0276 148.475 73.9388 148.664 73.8477C157.348 69.657 163.353 60.7629 163.354 50.4932C163.354 40.2224 157.348 31.3283 148.664 27.1377C147.909 26.7734 147.134 26.4444 146.341 26.1533C143.564 25.1344 140.565 24.5781 137.439 24.5781ZM82.8613 24.5781C68.5728 24.5781 56.9473 36.2039 56.9473 50.4932C56.9475 64.7819 68.5726 76.4066 82.8613 76.4062H108.775V50.4932C108.775 36.2036 97.1504 24.5783 82.8613 24.5781ZM62.9365 83.7803C62.9502 83.7785 62.9638 83.7762 62.9775 83.7744C62.9638 83.7762 62.9502 83.7785 62.9365 83.7803ZM46.2285 89.9219L46.6953 89.625C46.5338 89.7262 46.3729 89.8283 46.2129 89.9316C46.218 89.9283 46.2234 89.9252 46.2285 89.9219Z" fill="#1F6FAE"/>
<rect x="134" y="99" width="7" height="50" rx="3.5" transform="rotate(90 134 99)" fill="#1F6FAE"/>
<circle cx="174.5" cy="110.5" r="3.5" fill="#1F6FAE"/>
</g>
<defs>
<clipPath id="clip0_2035_2">
<rect width="200" height="200" fill="#1F6FAE"/>
</clipPath>
</defs>
</svg>
