<svg width="200" height="200" viewBox="0 0 200 200" fill="none" xmlns="http://www.w3.org/2000/svg">
<rect x="7.40576" y="28.4854" width="175.421" height="169.312" rx="53" transform="rotate(-1.02142 7.40576 28.4854)" fill="#1F6FAE"/>
<path d="M129.807 26.3025C159.074 25.7807 183.222 49.083 183.744 78.3494L184.873 141.651C185.394 170.917 162.092 195.065 132.826 195.587L63.4156 196.825C34.1493 197.347 10.001 174.044 9.47905 144.778L8.35112 81.4764C7.82933 52.2101 31.1308 28.0619 60.397 27.5398L129.807 26.3025ZM123.017 41.6639C113.935 41.6639 105.69 46.161 100.773 53.4705C95.9428 46.3515 87.7844 41.6641 78.5523 41.6639C65.1436 41.6641 54.0005 51.5505 52.0289 64.4168C51.9609 64.8606 51.9039 65.308 51.858 65.7586C51.7662 66.6594 51.7193 67.5732 51.7193 68.4979C51.7193 77.2011 55.8863 84.947 62.3277 89.8533C57.6581 90.3738 53.2352 91.7246 49.2105 93.7527C49.191 93.7626 49.1714 93.7731 49.1519 93.783C48.9605 93.8799 48.7693 93.978 48.5796 94.0779C48.5608 94.0878 48.5418 94.0983 48.523 94.1082C48.1262 94.3182 47.7328 94.5345 47.3443 94.7576C47.3176 94.773 47.2909 94.7891 47.2642 94.8045C46.8873 95.0221 46.5139 95.2456 46.1451 95.4754C46.1118 95.4961 46.0787 95.518 46.0455 95.5389C44.8718 96.275 43.7393 97.0713 42.6539 97.9246C42.6438 97.9325 42.6337 97.9411 42.6236 97.949C42.4514 98.0847 42.2798 98.2217 42.1099 98.3602C42.0975 98.3703 42.0852 98.3812 42.0728 98.3914C41.7194 98.6803 41.3708 98.9753 41.0279 99.2762C41.0067 99.2948 40.9856 99.3141 40.9644 99.3328C40.4668 99.7713 39.98 100.222 39.5054 100.685C39.4727 100.717 39.4394 100.749 39.4068 100.781C39.2632 100.922 39.1205 101.065 38.9791 101.208C38.9596 101.228 38.9399 101.248 38.9205 101.267C38.6184 101.575 38.3207 101.887 38.0289 102.204C37.9976 102.238 37.9663 102.272 37.9351 102.306C37.4893 102.794 37.0561 103.294 36.6353 103.804C36.6061 103.84 36.5765 103.875 36.5474 103.911C36.4354 104.048 36.3246 104.186 36.2144 104.324C36.1787 104.369 36.1425 104.414 36.107 104.459C35.417 105.333 34.7644 106.238 34.15 107.17C34.1181 107.218 34.0849 107.266 34.0533 107.314C33.9583 107.46 33.8651 107.607 33.772 107.754C33.7371 107.809 33.7012 107.864 33.6666 107.919C31.9154 110.712 30.5084 113.742 29.5064 116.949L29.2974 117.641L12.6275 125.976C11.6581 126.461 11.0455 127.452 11.0455 128.536C11.0456 129.62 11.6583 130.61 12.6275 131.095L29.2974 139.429C31.6134 147.361 36.392 154.251 42.7447 159.217C42.8068 159.265 42.8698 159.313 42.9322 159.361C42.9074 159.342 42.8817 159.324 42.857 159.304C43.2192 159.585 43.5873 159.859 43.9595 160.128C44.0289 160.178 44.0988 160.228 44.1685 160.277L44.6373 160.606C44.6151 160.591 44.593 160.575 44.5709 160.559C44.6325 160.602 44.6945 160.645 44.7564 160.687L45.2818 161.041C45.4713 161.166 45.6623 161.289 45.8541 161.411C45.9358 161.463 46.0181 161.514 46.1001 161.565C46.0741 161.549 46.047 161.534 46.021 161.517C46.1967 161.628 46.3738 161.737 46.5513 161.845C46.5249 161.829 46.4986 161.812 46.4722 161.796C46.5616 161.85 46.6519 161.904 46.7417 161.958C46.7027 161.934 46.6626 161.912 46.6236 161.888C46.7901 161.989 46.9583 162.087 47.1265 162.185C47.2034 162.23 47.2808 162.275 47.358 162.319C47.5145 162.409 47.6718 162.498 47.8296 162.586C47.9056 162.628 47.9819 162.67 48.0582 162.712L48.4976 162.949C53.9248 165.827 60.1093 167.46 66.6685 167.46H72.6519V173.138C72.6519 174.718 73.9333 176 75.5132 176C77.0929 175.999 78.3746 174.718 78.3746 173.138V167.46H84.9468V173.138C84.9468 173.83 85.1918 174.464 85.6001 174.959C85.7166 175.1 85.8467 175.23 85.9878 175.346C86.4824 175.755 87.117 176 87.8082 176C89.3877 175.999 90.6685 174.718 90.6685 173.138V167.46H102.364V173.138C102.364 173.929 102.684 174.644 103.202 175.162C103.266 175.226 103.334 175.288 103.405 175.346C103.899 175.755 104.534 176 105.225 176C106.805 175.999 108.085 174.718 108.085 173.138V167.46H114.658V173.138C114.658 173.929 114.978 174.644 115.496 175.162C115.56 175.226 115.628 175.288 115.699 175.346C116.193 175.755 116.828 176 117.519 176C119.099 175.999 120.38 174.718 120.38 173.138V167.46H133.877C145.95 167.46 156.758 161.935 163.903 153.281C164.101 153.041 164.297 152.798 164.49 152.553C169.309 146.423 172.33 138.816 172.752 130.535C172.768 130.204 172.781 129.871 172.79 129.538C172.798 129.205 172.802 128.87 172.802 128.535C172.803 115.49 166.352 103.923 156.472 96.8563C156.546 96.7534 156.623 96.6518 156.701 96.5516C156.767 96.4662 156.836 96.3822 156.905 96.2986C156.968 96.2216 157.034 96.1455 157.099 96.0701C157.213 95.9395 157.33 95.8104 157.45 95.6844C159.192 97.5834 161.692 98.7761 164.465 98.7762C165.45 98.7761 166.4 98.626 167.294 98.3475C167.484 98.288 167.672 98.2192 167.857 98.1482C171.436 96.7784 173.986 93.3107 173.986 89.2557C173.986 84.0059 169.715 79.7345 164.465 79.7342C159.216 79.7344 154.945 84.0059 154.945 89.2557C154.945 89.5726 154.962 89.8858 154.992 90.1951C153.664 91.2585 152.519 92.4993 151.582 93.8738C147.745 91.9066 143.541 90.5602 139.103 89.9617C141.853 87.895 144.193 85.3109 145.982 82.3582C146.012 82.3089 146.041 82.2592 146.071 82.2098C146.169 82.0455 146.265 81.8801 146.36 81.7137C146.388 81.6645 146.415 81.6146 146.443 81.5652C146.532 81.4065 146.619 81.2465 146.705 81.0857C146.742 81.0152 146.78 80.9447 146.817 80.8738L147.021 80.4754C147.059 80.3996 147.096 80.323 147.133 80.2469C147.222 80.0649 147.311 79.8823 147.396 79.698C147.418 79.6494 147.44 79.6003 147.462 79.5516L147.674 79.0721C147.707 78.9958 147.74 78.9192 147.772 78.8426C147.851 78.6545 147.929 78.4654 148.003 78.2752L148.232 77.6697C148.266 77.5754 148.299 77.4803 148.333 77.3855C148.321 77.4196 148.31 77.4541 148.297 77.4881L148.477 76.9695C148.51 76.8723 148.54 76.7743 148.572 76.6766C148.625 76.5112 148.678 76.3454 148.728 76.1785C148.724 76.1936 148.718 76.2084 148.713 76.2234C148.745 76.1193 148.775 76.0146 148.805 75.91C148.791 75.9584 148.778 76.0072 148.764 76.0555C148.967 75.3668 149.143 74.6671 149.291 73.9568C149.288 73.9676 149.285 73.9783 149.283 73.9891C149.305 73.8849 149.325 73.7802 149.345 73.6756C149.674 71.9996 149.851 70.2689 149.851 68.4979C149.851 53.7018 137.813 41.6643 123.017 41.6639ZM76.9214 99.8699H82.6431V95.3328H90.855V99.8699H96.5777V95.3328H103.969V99.8699H109.691V95.3328H117.904V99.8699H123.626V95.3328H131.017V161.738H123.626V122.681H117.904V161.738H109.691V122.681H103.969V161.738H96.5777V122.681H90.855V161.738H82.6431V122.681H76.9214V161.738H69.5298V95.3328H76.9214V99.8699ZM63.8082 161.612C46.8341 160.157 33.4654 145.879 33.4654 128.535C33.4655 111.191 46.8341 96.9118 63.8082 95.4568V161.612ZM136.74 95.4568C141.202 95.8395 145.414 97.1081 149.2 99.0857C148.833 100.482 148.639 101.938 148.639 103.425C148.639 104.116 148.884 104.75 149.293 105.245C149.409 105.386 149.539 105.516 149.68 105.633C150.175 106.041 150.809 106.286 151.501 106.286C153.08 106.286 154.362 105.004 154.362 103.425C154.362 103.099 154.38 102.777 154.407 102.457C162.12 108.542 167.082 117.97 167.082 128.535C167.082 129.89 167 131.226 166.841 132.539C166.81 132.802 166.775 133.063 166.737 133.324C164.543 148.443 152.122 160.293 136.74 161.612V95.4568ZM27.9292 124.722C27.8065 125.977 27.7437 127.25 27.7437 128.536C27.7437 129.822 27.8066 131.093 27.9292 132.347L20.3033 128.535L27.9292 124.722ZM153.21 114.535C151.635 114.535 150.359 115.812 150.359 117.387C150.359 118.961 151.635 120.238 153.21 120.238C154.784 120.238 156.061 118.961 156.061 117.387C156.061 115.812 154.784 114.535 153.21 114.535ZM82.3316 108.018C80.7568 108.018 79.48 109.295 79.48 110.87C79.4801 112.445 80.7569 113.721 82.3316 113.721H117.363C118.938 113.721 120.214 112.445 120.214 110.87C120.214 109.295 118.938 108.018 117.363 108.018H82.3316ZM164.466 85.4568C166.56 85.4573 168.264 87.1612 168.264 89.2557C168.264 91.3501 166.56 93.0541 164.466 93.0545C162.372 93.0545 160.667 91.3504 160.667 89.2557C160.667 87.161 162.371 85.4568 164.466 85.4568ZM78.5523 47.3865C90.1933 47.3868 99.6656 56.8574 99.6656 68.4988V89.6102H78.5523C66.9116 89.6102 57.4411 80.1395 57.441 68.4988C57.441 68.3171 57.4432 68.1356 57.4478 67.9549C57.7373 56.5641 67.0937 47.3868 78.5523 47.3865ZM123.017 47.3865C134.658 47.3868 144.129 56.8574 144.129 68.4988C144.129 80.1393 134.658 89.6098 123.017 89.6102H105.387V68.4988C105.387 67.5252 105.334 66.5638 105.232 65.617C105.15 64.8595 105.036 64.1113 104.892 63.3738C104.64 62.0831 104.295 60.8248 103.866 59.6063C107.323 52.1495 114.726 47.3867 123.017 47.3865ZM146.443 81.5652C146.436 81.5774 146.43 81.5902 146.423 81.6023C146.438 81.5768 146.452 81.5508 146.466 81.5252C146.459 81.5386 146.45 81.5518 146.443 81.5652ZM146.705 81.0857C146.698 81.0979 146.693 81.1107 146.686 81.1229C146.698 81.0998 146.711 81.0766 146.723 81.0535C146.717 81.0644 146.71 81.0749 146.705 81.0857ZM147.133 80.2469C147.128 80.2583 147.123 80.2706 147.118 80.282C147.131 80.2554 147.144 80.2286 147.157 80.202C147.149 80.2171 147.141 80.2318 147.133 80.2469Z" fill="white"/>
</svg>
